<?xml version="1.0" standalone="no"?>
<!DOCTYPE svg PUBLIC "-//W3C//DTD SVG 20010904//EN"
 "http://www.w3.org/TR/2001/REC-SVG-20010904/DTD/svg10.dtd">
<svg version="1.0" xmlns="http://www.w3.org/2000/svg"
 width="640.000000pt" height="320.000000pt" viewBox="0 0 640.000000 320.000000"
 preserveAspectRatio="xMidYMid meet">

<g transform="translate(0.000000,320.000000) scale(0.100000,-0.100000)"
fill="#000000" stroke="none">
<path d="M5965 2568 c-16 -18 -32 -32 -37 -30 -5 1 -7 -1 -5 -5 3 -5 -15 -31
-40 -58 -25 -28 -52 -60 -60 -72 -8 -13 -20 -20 -26 -16 -5 3 -7 1 -4 -4 4 -6
-9 -25 -28 -42 -19 -17 -35 -33 -35 -37 0 -8 -43 -59 -52 -62 -5 -1 -13 -2
-19 -2 -5 0 -8 -4 -5 -9 4 -5 -24 -41 -61 -80 -38 -38 -69 -75 -71 -82 -3 -13
-43 -48 -55 -49 -5 0 -6 -4 -3 -9 3 -5 -10 -23 -29 -40 -19 -17 -35 -35 -35
-40 0 -5 -15 -22 -34 -39 -19 -17 -32 -32 -30 -35 3 -2 -10 -17 -28 -32 -18
-16 -32 -32 -31 -36 1 -4 -13 -21 -32 -38 -19 -17 -35 -35 -35 -40 0 -6 -16
-23 -35 -38 -19 -15 -35 -33 -35 -40 0 -7 -13 -22 -30 -35 -16 -12 -30 -27
-30 -32 0 -10 -12 -24 -97 -111 -18 -19 -33 -38 -33 -42 0 -5 -15 -23 -32 -41
-18 -17 -49 -50 -68 -72 -19 -23 -49 -58 -66 -77 -17 -20 -44 -51 -60 -69 -16
-19 -40 -47 -55 -62 -111 -119 -160 -182 -154 -199 3 -10 25 -40 49 -66 l43
-48 65 83 c143 185 749 972 972 1263 130 171 264 345 297 388 60 78 77 118 24
55z"/>
</g>
</svg>
